<svg xmlns="http://www.w3.org/2000/svg" xmlns:xlink="http://www.w3.org/1999/xlink" width="361.313" height="78.401" viewBox="0 0 361.313 78.401">
  <defs>
    <clipPath id="clip-path">
      <rect id="Rectángulo_172" data-name="Rectángulo 172" width="263.99" height="68.117" fill="#009344"/>
    </clipPath>
  </defs>
  <g id="Grupo_169" data-name="Grupo 169" transform="matrix(0.999, 0.035, -0.035, 0.999, 2.377, 0)">
    <path id="Trazado_312" data-name="Trazado 312" d="M17.821,0H356.413l-9.9,27.364L0,59.7Z" transform="translate(2.958 6.197)" fill="#009344"/>
    <g id="Grupo_168" data-name="Grupo 168" transform="translate(0 0)">
      <g id="Grupo_167" data-name="Grupo 167" clip-path="url(#clip-path)">
        <path id="Trazado_313" data-name="Trazado 313" d="M.015,1.614C.139,1.2.3.527.444,0,.12,1.587-.054,2.347.015,1.614" transform="translate(9.986 27.596)" fill="#009344"/>
        <path id="Trazado_314" data-name="Trazado 314" d="M4.739,0C3.492,5.7,1.5,14.711,0,20.216,1.039,15.122,3.636,1.262,4.739,0" transform="translate(10.43 7.378)" fill="#009344"/>
        <path id="Trazado_315" data-name="Trazado 315" d="M0,6.941,1.777,0C1.059,4.27.886,3.289,0,6.941" transform="translate(8.606 22.531)" fill="#009344"/>
        <path id="Trazado_316" data-name="Trazado 316" d="M.909,0l.184.538L0,4.152Z" transform="translate(8.942 27.328)" fill="#009344"/>
        <path id="Trazado_317" data-name="Trazado 317" d="M.625.66C.156.51-.139.32.066,0Z" transform="translate(204.2 35.417)" fill="#009344"/>
        <path id="Trazado_318" data-name="Trazado 318" d="M0,.136C.927.1,1.572.049,2.124,0A11.055,11.055,0,0,1,0,.136" transform="translate(215.193 36.824)" fill="#009344"/>
        <path id="Trazado_319" data-name="Trazado 319" d="M0,.3,1.822,0A10.933,10.933,0,0,1,0,.3" transform="translate(195.504 37.158)" fill="#009344"/>
        <path id="Trazado_320" data-name="Trazado 320" d="M4.565.655,0,.347C3.287-.441,3.607.313,4.565.655" transform="translate(77.033 53.035)" fill="#009344"/>
        <path id="Trazado_321" data-name="Trazado 321" d="M.019,1.835C.013,1.544,0,1.292,0,.972c.216-.6.392-1.05.413-.96a2.724,2.724,0,0,1-.1.6C.25.869.155,1.266.019,1.835" transform="translate(259.345 18.426)" fill="#009344"/>
        <path id="Trazado_322" data-name="Trazado 322" d="M.016.538A.5.5,0,0,1,.236,0L.772.026Z" transform="translate(217.923 42.545)" fill="#009344"/>
        <path id="Trazado_323" data-name="Trazado 323" d="M1.593.127l-.1.056L0,.128a2.424,2.424,0,0,1,1.593,0" transform="translate(186.713 39.027)" fill="#009344"/>
        <path id="Trazado_324" data-name="Trazado 324" d="M1.8.848A7.579,7.579,0,0,1,0,0C1.393.179,2.043.554,1.8.848" transform="translate(250.126 0.446)" fill="#009344"/>
        <path id="Trazado_325" data-name="Trazado 325" d="M.254,0c.021,0,0,.011.021.015L0,.034.254,0" transform="translate(217.317 36.79)" fill="#009344"/>
        <path id="Trazado_326" data-name="Trazado 326" d="M0,.1,2.364,0A6,6,0,0,1,0,.1" transform="translate(203.079 44.438)" fill="#009344"/>
        <path id="Trazado_327" data-name="Trazado 327" d="M0,0,1.448.113A3.082,3.082,0,0,1,0,0" transform="translate(81.598 53.69)" fill="#009344"/>
        <path id="Trazado_328" data-name="Trazado 328" d="M1.022,0C.52,2.291.249,2.736,0,3.07A29.716,29.716,0,0,1,1.022,0" transform="translate(5.26 48.553)" fill="#009344"/>
        <path id="Trazado_329" data-name="Trazado 329" d="M.574.023,0,.012A2.446,2.446,0,0,1,.574.023" transform="translate(17.836 9.689)" fill="#009344"/>
        <path id="Trazado_330" data-name="Trazado 330" d="M0,0A3.454,3.454,0,0,1,.729.309C.259.41-.006.231,0,0" transform="translate(73.495 10.745)" fill="#009344"/>
        <path id="Trazado_331" data-name="Trazado 331" d="M124.235,1.366c-3.6.563-7.313-.588-10.445-.648l1.068.479L111.7.8l.036.687c-5.219-.322-11.7.391-13.609-.7l.613,1.1L93.2,1.009l3.171.744c-6.22.23-15.667-.625-17-.619l.56.41a8.266,8.266,0,0,1-2.882-.193l.819.614C68.5,1.8,65.941,3.182,55.48,2.535c-2.85.148,1.58.2,1.625.545-1.557.486-5.22.022-6.013-.252.829.959,5.239.667,1.891,1.437-2.379-.473,1.622.888-2.564.7l-1.64-1.23c-2.328.213-.466.963-4.147.841-4.2-.535,5.144-1.4-1.625-1.575C39.615,3.08,35.87,5.849,29.3,5.186c-5.673.642,2.984,1.915-4.863,1.6l5.023.806c-1.3.349-.479.964-3.879.7a15.3,15.3,0,0,0-5.014-1.15c7.351.932-6.444,1.4.4,2.611L18.41,9.712c.317.047.4.167.229.259l-3.389.085c2.09.269,7.061.382,4.752,1.288l-4.909.226c1.31.681-.488.965-.2,1.514L29.329,14.4c-.567-.41-2.646-.677-1.872-1.091,3.854-.36,3.148.74,6.768.175l-1.6-.542c.287.207.8.271.006.342-1.269.352-1.825-.06-1.836-.4,1.269-.692,4.922-.227,6.01.252,4.689-.089.964-1.243,2-1.454,2.426,1.158,7.83-.03,10.735.507l-1.865-.75c3.569-.908,6.764-.163,8.855.1l-.811-.615c4.968.117,7.433-1.956,11.214.23l-.524-.411c2.039-.191,5.133-.65,7.085,0,.046-.258.392-.577,1.217-.654,1.1.845,3.223.205,6.226.055-1.993-.22-1.357-1.311-3.458-1.576,4.635-1.121,4.25,1.218,8.143,1.2,2.336-.559-2.093-.61-2.652-1.02,6.011.594,12.353-2.524,16.146-.34l-2.581.7c2.39.472,3.685.467,3.4.263a1.538,1.538,0,0,1-1.3-.339c7.218-1.128,11.291,1.6,18.579,1.163-.542-.41-1.583-.543-1.629-.887,3.355-.427,3.267,2.117,8.686,1.27L123.2,10.1c1.8-.284,3.142.4,2.9.538.142-1.857,11.469.09,15.246-2.33,2.655,1.02,10.258,1.815,12.581,1.253,3.331-1.112-2.95-1.225-1.712-2.262,2.61-.01,3.98,1.016,7.868.656.065,1.031-7.684,2.094-.369,2.684l1.024-.555a12.141,12.141,0,0,1-2.86.149c-2.115-.61,1.269-.692,1.754-.97l7.854.312c.573,1.1-4.123.842-4.608,1.119,6.215-.231,13.694-1.843,19.472-1.11l-.548-.411c7.368.933,4.3-2.01,10.162-.247,3.1-.287-1.116-1.166,3.559-1.252,1.321-.006.547.41.311.549,5.744.389,2.529-1.044,7.83-.033l-1.143-1.163c6.318.8,12.94,2.836,18.4,2.334-.327-.9-3.7-.812-5.047-1.493,7.4,1.618,17.74.2,24.576,1.068-2.043.764,3.236,1.775-1.143,2.41-1.132-1.163-3.186-.4-5.529-.527,3.79,2.53,15.843-1.231,17,.963l1-.9c.262.033.625.1.994.187a1.372,1.372,0,0,1,.445.3c.21.221.193.461-.132.6q.987-.219,2.323-.439l-.186,1.032c.194-.41.446-.957.741-1.64a4.219,4.219,0,0,0-1.96-.963,4.762,4.762,0,0,0-1.319-.143,3.342,3.342,0,0,0-1.472.305c-2.145-.953,3.089-.632,1.19-1.725l1.225.376a4.24,4.24,0,0,0,.772.152,2.449,2.449,0,0,0,1.1-.157,8.069,8.069,0,0,1,3.079-.707c-.127.5-.3,1.128-.517,1.861-.059-.563-.322-.239-.636.368s-.692,1.536-1.041,2.413c-.706,1.779-1.294,3.319-1.433,3.083-.022.122-.019.139-.074.362l-.151.605c-.109.422-.234.875-.37,1.348-.272.947-.59,1.974-.916,2.981-.652,2.013-1.337,3.945-1.759,4.993-.1.377-.215.794-.338,1.245l-.182.71-.087.344-.039.171-.347,1.63-.559.165-.3.089-.158.044a1.965,1.965,0,0,1-.222.053l-2.782.52a40.771,40.771,0,0,1-5.392.636c1.849.174,4.769.344,4.592,1.194-2.392-.169-5,.171-5.4,1.189,4.249.344,4.9-.293,5.455-.994A2.587,2.587,0,0,1,247.1,32.1a5.281,5.281,0,0,1,1.353-.315c.3-.035.63-.061,1.01-.075l.145,0,.1,0,.2.01.459.034a4.494,4.494,0,0,0,1.162.495,19.21,19.21,0,0,0,1.221-3c.523-1.575,1.1-3.446,1.791-5.733-.406,3.035.066,1.925.168,3.381a44.817,44.817,0,0,0-2.547,6.9c-1.1.067-2.152.2-3.338.371l-3.555.557a34.75,34.75,0,0,1-7.06.553c-2.677-.34-.748-2.041-6.759-1.534l5.124-1.355c-5.64,1.354-1.36-.512-6.054-.176l1.894.513c-2.857.508-3.913.509-5.525.165l2.474.851c-1.538.339-4.388.847-4.457.168-.385.333-.513.575-.5.772-.31-.154-1.044-.185-2.85.08,1.064,0,1.826-.171,1.864.169-6.9.6-1.556,1.456-5.831,1.885.687.181-.513.668-2.037,1,.024-1.835-8.449-1.005-10.73-1.732l.028.023-5.8,0c1.175,0-.064.658-1.732,1.061l.272-.043c-1.819.514,2.265,1.7-3.253,1.872l-2.911-.173c.519,0,.035.342-.23.514l-2.995-.119c-4.474,2.276-8.627.125-13.943,1.637,1.538-.34,3.9-.508,2.912.173a7.953,7.953,0,0,1-3.419.169l.278.17-10.246.164c.855.509,6.563-.167,4.043.851-1.472,1.021-4.437.51-6.271.679.214-.51,3.571-1.362.149-1.19-.407.289-3.629,1.2-2.084,1.348-3.515-.05-8.6.294-11.765-.164-.982.335.586.338,1.109.338l.245-.169c2.116,0,.377,1.192,4.489.171.415,1.536-5.939,1.19-9.553,1.868l5.826.343c-9.64,3.393-22.883,2.71-32.528,3.9,2.808-.85,5.2-.681,4.8-1.869-6.018.163-5.22.335-11.207.84h.516c-3.063,1.022-7.336.338-9.314,1.7,1.364.51,4.358-1.192,4.492.173l-7.544.846c2.4.514,7.544-.846,10.427-1.015,2.07-.338-4.178.338-3.231-.684,7.038-.846,8.682-.164,12.2.688,2.151.687-3.032,1.359-4.339,1.531-4.541-.854-11.113-.688-18.065.837L92.4,54.068c-3.5-.509-2.109-2.554-8.339-1.531l1.9.512a14.354,14.354,0,0,1-2.91.755c2.708.225,5.627.5,8.078.779-3.48,2.038-10.232.5-15.466.843.28.168,2.107,0,2.668.339-7.77,1.359-16.007.5-22.031,1.011-2.512,1.016,5.015-.171,3.821,1.017-3.179,0-6.711,1.358-7.6.508,1.442,1.191-7.261,1.017-1.157,1.531C39.988,61.867,27.387,62.2,15.837,62.876c.577.34.591.682.119,1.02,3.9-.509,9.64-.843,11.845-.165-2.53,1.021-6.1-.169-6.817.337,1.323.171,3.918-.167,3.993.513-3.3,1.191-5.22.338-7.575.506l1.259-.508a16.293,16.293,0,0,1-5.8-.769,6.491,6.491,0,0,0-2-.239,25.343,25.343,0,0,0-3.875.464c-1.349.589-1.495.779-1.188.937.283.16.974.3.909.82a35.509,35.509,0,0,0-5.477.766,59.232,59.232,0,0,1,2.188-8.642l-1.687,7.9C3.189,60,4.256,55.158,5.26,51.623a4.045,4.045,0,0,0-.693,1.607c1.1-4.059,2.241-9.452,3.09-11.348l-.35-1.564C7.027,42.982,5.432,50.464,4.816,51.5c-.374-1.055,1.619-8.38,2.3-11.707-1.61,6.884-2.677,10.391-3.6,13.54-.122.422-.216.717-.356,1.235l-.415,1.539c-.278,1.049-.56,2.152-.852,3.356C1.31,61.864.681,64.694,0,68.117l1.415-.265L.308,67.724l.187-.641-.083.508A36.75,36.75,0,0,1,4.949,66.8c.72-.081,1.434-.142,2.153-.192l1.084-.067.977-.04a63.685,63.685,0,0,0,6.643-.3c-1.175.374-1.4.807-.834.921,9.271-2.035,18.454-2.541,29.04-4.4l3.241.682.162-.851c5.174-1.02,1.175,1.02,4.517.517-1.272.164-1.049,0-1.318-.175,6.065.176,3.314-1.19,6.7-1.356-1.645-.681-6.53.507-5.073-.856,6.052.176,15.376-1.522,16.344.354,11.124-2.208,25.013-2.712,34.4-3.724,1.264-.51-.811-.173-.331-.512,3.759.682,12.411-2.376,12.515-1.355a7.387,7.387,0,0,0,2.974-1.7,54.533,54.533,0,0,0,8.294-.168l-2.225,0,.235-.169,3.158,0-.114.079c7.541-.658,16.23-2,23.109-1.765-3.963-.175.936-1.365-.94-1.534,3.543,1.194,11.867.179,18.609-.84-.044-.34.467-.681-.337-.853l3.943.177-.537-.344c7-1.187,14.706-.332,19.3-1.689-2.87.168-2.9-.174-3.211-.685,5.023-.593,9.759-1.172,15.646-1.418-.319-.061-.528-.151-.543-.273a24.594,24.594,0,0,1,4.977-.167l.177-.848c3.017,0,6.873-.91,10.468-.7,1.358-1.081,8.675-.255,12.776-1.156,1.584,0-3.474-.51.947-1.02.7,1.7,5.737-.679,6.167,1.2l3.832-1.189.894.85a5.487,5.487,0,0,1,4.277-.9c.722.083,1.494.2,2.381.228l.338.006a4.194,4.194,0,0,0,.452-.017l1.391-.125c.964-.1,2-.248,3.1-.448.036-.148.076-.314.117-.48-.05.1-.1.222-.162.371-.535-.069-1.14-.058-.8-.215l.691-.047c.337-1.163.738-2.55,1.118-3.863l.554-1.9.249-.84.114-.379c.021-.064.043-.125.062-.182.16-.462.27-.711.286-.577a2.586,2.586,0,0,1-.051.507c-.011.069-.024.147-.038.231-.021.108-.016.122-.068.348-.086.377-.185.816-.3,1.32l2.807-10.292c.839-3.177,1.269-5.13.172-2.256.414-.219-1.347,5.236-2.107,7.6-.356-.662,1.441-6.6,1.363-8.476.1-.168.385-.88.623-1.443l.1-1.614c1.577-4.993,3.11-10.463,4.543-15.628-2.311-.057-4.567-.1-6.695-.216-1.065-.057-2.1-.132-3.114-.237l-.755-.084-.375-.046a2.707,2.707,0,0,1-.317-.049q-.415-.1-.809-.231c-.207.255-1.066.452-2.752.4L249.1.655l-5.214.023,2.441,1.5c-5.721.3-9.747-1.405-14.446-1.659-1.208,1.723-9.171-.651-13.241.878l3.672.467c-7.846-.314-9.095.726-16.412.135,6.208-.576,6.244-.231,15.286-1.641-9.078.722-15.684-.972-24,.028.555.408,2.642.673.607,1.1-1.622-.887-7.83.032-6.6-1.005-2.58.351-3.03,1.319-4.608,1.461L177.929.667l.265.205c-14.725,2.4-27.487-1.609-42.263-.587l.286.551-3.7-.811c2.9.538-1.255.692-1.483,1.174L121.567,0c-.213.483.345,1.58,2.667,1.366m124.659.462,2.242.074a4.219,4.219,0,0,1,1.422.046L251.136,1.9c-1.152.136-2,.57-2.242-.074M74.026,59.844c-1.1-.342,1.544-.342,2.29-.506l-3.645.335c-.493.34.822.168,1.355.17m175-51.349-1.25.692-1.6-.542Zm-31.8.06,3.171.4-.266.139-3.137-.4ZM181.886,2.989a6.054,6.054,0,0,1,.612.137,3.836,3.836,0,0,1-.612-.137c-2.448-.5-3.422.74-5.414-.461,2.444-1.027,4.015.038,5.414.461m55.874-.017a9.7,9.7,0,0,0,2.359.128c-.551-.411-2.68-1.019-1.121-1.164,1.084.478,4.72.6,4.772,1.287-3.163-.744-5.4,1.191-6.01-.25M216.525,42.234l.791-.173-2.933-.168Zm-13.587,1.012c-1.651-.681-5.792,0-8.668.164-.709.852,2.242,1.362,5.613.854,3.978.171,1.44-1.36,3.055-1.019m10.4-38.939.8.614L213.385,5l3.142.4c-4.128.843-7.079-.728-9.188-.994,1.844.062,6.879,1.556,6-.092M174.02,46.464c-2.913-.174-8.155-.177-7.7-.858-.134,1.19,4.075,1.194,5.376,1.025a9.56,9.56,0,0,1,2.328-.167m.059-2.216c4.214,0,4.526.512,7.773,1.2-4.128,1.019-5.327-.34-4.86-1.022-2.913-.174-2.321.51-3.86.847Zm4.5,2.726,1.7-.376c2-.74,2.361-2.116,5.25-1.151l-5.25,1.151a6.383,6.383,0,0,1-1.7.376m-35.246,4.39,1.739.184c-1.7.175-1.906.024-1.739-.184l-1.448-.159c3.717-.895,1.812-.247,1.448.159m26.865-3.712,4.957-.507c-.309-.514-3.386.164-4.957.507m-25.805,2.535c2.083-.34,7.518-1.187,6.765-1.019-.467.681-5.427,1.19-6.765,1.019M35.027,62.374l3.124-.335-1.472,1.019Zm36.594-5.251-.753.51L69.05,57.8ZM105.383,52.8c-.154.2-.056.414.232.569a2.589,2.589,0,0,1,1.191.2,1.956,1.956,0,0,1-1.191-.2,13.9,13.9,0,0,0-4.278.71c.56.339,2.642,0,3.459.169-3.045,1.361-10.108-.684-8.006,1.871-1.323-.171-5.828-.344-4.3-1.026a79.49,79.49,0,0,0,12.9-2.292,1.735,1.735,0,0,1,1.047-.422,4.621,4.621,0,0,1-1.047.422m45.48-6.351a8.945,8.945,0,0,1,2.093-.018c1.107.069,1.955.277,1.649.7-2.682,0-.992-.535-1.649-.7a14.343,14.343,0,0,0-2.093.018m8.037-1.186-4.2,0,2.131.342-6.346-.345c3.588-1.019,7.823-.675,8.414.006m1.446-.724.891.56-1.348-.518.457-.043-.2-.128,7.054-.5ZM232.3,36.8c2.536-2.645-6.294-.854-7.718-1.8-.26.811-2.876,2.351,4,1.455-5.9,1.528-3.786-1.026-7.237,1.356a36.644,36.644,0,0,1,6.8-.334l-3.349.5c1.961,1.192,5.13-1.356,7.506-1.185m26.635-27.97.443-1.627-3.361-.04,3.258.153-.361,1.262ZM151.211,7.859c.312.547-5.382,1.535-6.737.507,2.869-.149,6-.094,6.737-.507M104.284,7.7l4.971.461c-.959,1.242-4.439-.051-6.77.165-.811-.615,1.025-.21,1.8-.626M71.946,7.7l-1.582-.2,1.663,1.23Zm2.175,1.641c-1,.554,2.4.817,3.2.745ZM44.99,10.419l2.072-.078L45.188,9.248Zm3.3-1.283c.488.785.281,1.845,5.053,1.318.2-.826-1.1-.819.671-1.79a13.731,13.731,0,0,0-3.643.22c1.069.135,2.333-.215,2.626.334a12,12,0,0,1-4.707-.081,1.411,1.411,0,0,0-1.06-.651c.016.252.42.483,1.06.651M65.58,8.268a5.393,5.393,0,0,0,1.425-.346l.287.208a2.136,2.136,0,0,1-1.712.139c-.691.108-1.494.2-2.322.293-.529.7,2.739,1.172,3.6,1.561-1.555-.2-2.9-.88-4.961-.459.272.2.013.345,1.312.335l-2.846.152c-3.258-.97-.147-1.27,2.9-1.589.1-.153.327-.314.9-.491a3.1,3.1,0,0,1,1.419.2M42.7,6.714l1.56.2c.8.271.292.548.571.754-1.828-.062-4.213-.534-2.131-.954m93.589-.241c-1.035.211,1.356,1.027,3.684.812l-1.238,1.036c-.059-.687-4.732-.6-5.256-.667-.826-.958.994-.552,2.81-1.18m108.722-.024c.846,1.3,6.808.521,8.113.863-3.085.286-10.134.589-8.113-.863M255.79,5.92c1.909.016,2.531-.107,1.927.548a8.884,8.884,0,0,0,2.255.086c-.131.473-.272.937-.436,1.367l.23-1.142c-2.719.282-2.076-.609-3.976-.859-.5,0-1.062-.016-1.773-.056a9.339,9.339,0,0,1,1.773.056m-64-.083-2.165-.954-3.381.083ZM155.44,4.128c.277.549-3.606.565-4.414.293.248.722,2.852.63,4.923.706a6.742,6.742,0,0,0,1.364.095c-.405-.052-.855-.077-1.364-.095-.776-.169-.236-.54-.236-.792l1.03-.211-2.866-.2ZM91.521,3.352a7.855,7.855,0,0,1-4.157.157,10.84,10.84,0,0,1,4.157-.157m83.185.148c-3.909.36,1.878,1.091-.687,1.446l2.048-.075c-3.324.768-2.371-.818-4.71-.6l1.564-.143c1.237-.693-2.4-.473-2.689-1.021,1.825-.284,6.029.249,4.474.394M87.85,2.888c-3.87.7-3.186-.744-5.53-.871,3.083-.633,2.632.677,5.53.871M150.076,1.4l.245-.136-3.141-.4L146.931,1Z" transform="translate(0 0)" fill="#009344"/>
        <path id="Trazado_332" data-name="Trazado 332" d="M2.106.018A10.359,10.359,0,0,1,0,.036C.668,0,1.368-.015,2.106.018" transform="translate(80.938 10.11)" fill="#009344"/>
        <path id="Trazado_333" data-name="Trazado 333" d="M.031,0c.1.1.079.393.011.8A1.791,1.791,0,0,1,.031,0" transform="translate(254.914 15.004)" fill="#009344"/>
        <path id="Trazado_334" data-name="Trazado 334" d="M.253,0C.212.149.169.309.132.444.1.538.042.673,0,.784Z" transform="translate(251.556 25.646)" fill="#009344"/>
        <path id="Trazado_335" data-name="Trazado 335" d="M.841.6c.529-1.136.412-.5.105.678C.789,1.86.593,2.589.4,3.3l-.238.878C.1,4.414.042,4.64,0,4.832A10.366,10.366,0,0,0,.17,3.8c.051-.4.1-.76.141-1.1A7.757,7.757,0,0,1,.841.6" transform="translate(5.136 51.914)" fill="#009344"/>
        <path id="Trazado_336" data-name="Trazado 336" d="M1.308,2.541A4.958,4.958,0,0,0,0,2.337C.2,1.618.407.826.609,0,.475.643.31,1.335.042,2.285a7.015,7.015,0,0,1,1.265.256" transform="translate(2.561 62.517)" fill="#009344"/>
        <path id="Trazado_337" data-name="Trazado 337" d="M1.543,0C1,2.977.512,5.3,0,7.385c.19-.919.31-1.731.521-2.859S1.036,1.958,1.543,0" transform="translate(3.17 55.132)" fill="#009344"/>
        <path id="Trazado_338" data-name="Trazado 338" d="M6.688.944a15.411,15.411,0,0,0-4.71.338C8.693-.077.578.429,0,.092c4.2-.34,4.256.34,6.688.852" transform="translate(24.549 60.408)" fill="#009344"/>
        <path id="Trazado_339" data-name="Trazado 339" d="M1.862,0A14.2,14.2,0,0,0,0,.342,6.915,6.915,0,0,1,1.862,0" transform="translate(38.307 60.503)" fill="#009344"/>
        <path id="Trazado_340" data-name="Trazado 340" d="M2.484.033A8.743,8.743,0,0,1,6.757.716c-2.8.8-4.648.047-6.757.163C1.653.656,3.273.519,2.484.033" transform="translate(40.17 59.624)" fill="#009344"/>
        <path id="Trazado_341" data-name="Trazado 341" d="M1.878.678C1.339.678.051.847,0,.509L3.9,0C5.479,0,2.656.508,1.878.678" transform="translate(112.498 46.939)" fill="#009344"/>
        <path id="Trazado_342" data-name="Trazado 342" d="M0,1.016C3.122.677,1.458,0,3.047,0L2.92,1.187Z" transform="translate(128.845 46.441)" fill="#009344"/>
        <path id="Trazado_343" data-name="Trazado 343" d="M.925.091H0L1.054,0Z" transform="translate(126.444 53.489)" fill="#009344"/>
        <path id="Trazado_344" data-name="Trazado 344" d="M2.213,1.023,0,0C2.633,0,2.714,1.028,2.213,1.023" transform="translate(141.598 43.379)" fill="#009344"/>
        <path id="Trazado_345" data-name="Trazado 345" d="M1.849.506,0,.335,5.746,0Z" transform="translate(153.819 41.522)" fill="#009344"/>
        <path id="Trazado_346" data-name="Trazado 346" d="M0,.508.495.169,4.436,0Z" transform="translate(170.034 40.336)" fill="#009344"/>
        <path id="Trazado_347" data-name="Trazado 347" d="M.04.926c-.6-1.1,5.678-.642,7.5-.926-1.251,1.382-5-.459-7.5.926" transform="translate(202.404 8.652)" fill="#009344"/>
        <path id="Trazado_348" data-name="Trazado 348" d="M0,0,5.994.252C1.35.683,4.7.255,0,0" transform="translate(88.498 9.624)" fill="#009344"/>
      </g>
    </g>
  </g>
</svg>
