<svg xmlns="http://www.w3.org/2000/svg" xmlns:xlink="http://www.w3.org/1999/xlink" width="88.961" height="18.033" viewBox="0 0 88.961 18.033">
  <defs>
    <clipPath id="clip-path-bon-appetit">
      <rect id="Rectángulo_150" data-name="Rectángulo 150" width="88.961" height="18.033" transform="translate(0)" fill="#fff"/>
    </clipPath>
  </defs>
  <g id="Grupo_138" data-name="Grupo 138" transform="translate(0)" clip-path="url(#clip-path-bon-appetit)">
    <path id="Trazado_297" data-name="Trazado 297" d="M8.54,9.451c0-2.628-1.06-3.666-2.479-3.666-1.462,0-2.9,1.144-2.9,3.645v.106c0,2.628,1.081,3.814,2.734,3.814,1.4,0,2.649-1.081,2.649-3.9M3.073,12.269l-1.144,1.8H1.5V2.331C1.5,1.017,1.356.89,0,.805V.212L3.242,0V6.887A3.344,3.344,0,0,1,6.378,4.895c2.267,0,4.047,1.8,4.047,4.556A4.439,4.439,0,0,1,6.06,14.219a2.98,2.98,0,0,1-2.988-1.949M18.584,9.557c0-2.2-.848-3.9-2.691-3.9s-2.67,1.7-2.67,3.9.826,3.92,2.67,3.92,2.691-1.7,2.691-3.92m-7.247,0a4.567,4.567,0,1,1,9.133,0,4.568,4.568,0,1,1-9.133,0M31.3,13.985H26.572v-.572c1.377-.127,1.462-.254,1.462-1.547V7.883c0-1.356-.487-2.055-1.716-2.055a2.564,2.564,0,0,0-2.479,2.755v3.284c0,1.314.127,1.42,1.483,1.547v.572H20.6v-.572c1.377-.127,1.483-.254,1.483-1.547V7.332c0-1.314-.127-1.42-1.483-1.5V5.234l3.136-.254V6.823a3.113,3.113,0,0,1,3.009-1.928,2.791,2.791,0,0,1,3.03,3.115v3.835c0,1.314.148,1.42,1.483,1.547v.593Zm8.37-3.348V9.408c-2.734.191-3.793.911-3.793,2.267,0,1.1.53,1.7,1.547,1.7A2.513,2.513,0,0,0,39.668,10.637Zm1.716-2.458v4.28c0,.657.233.848.572.848a1.423,1.423,0,0,0,.72-.3l.106.615a1.925,1.925,0,0,1-1.4.487,1.509,1.509,0,0,1-1.7-1.653,2.865,2.865,0,0,1-2.818,1.759c-1.8,0-2.882-.954-2.882-2.458,0-1.7,1.589-2.882,5.679-3.051V7.565c0-1.25-.572-1.928-1.716-1.928-1.187,0-1.483.593-1.844,1.441-.191.445-.4.742-.911.742a.747.747,0,0,1-.826-.784c0-1.1,1.526-2.14,3.539-2.14C40.24,4.895,41.384,6.124,41.384,8.179Z" transform="translate(0.472 -0.116)" fill="#fff"/>
    <path id="Trazado_298" data-name="Trazado 298" d="M202.578,14.543c0,2.649,1.06,3.772,2.734,3.772,1.4,0,2.628-1.081,2.628-3.9,0-2.628-1.059-3.666-2.479-3.666-1.462,0-2.9,1.144-2.9,3.666v.127Zm1.865,8.794H199.4v-.593c1.377-.085,1.483-.254,1.483-1.547V12.3c0-1.314-.127-1.42-1.483-1.5V10.2l3.179-.254v2.034a3.329,3.329,0,0,1,3.2-2.119c2.267,0,4.047,1.8,4.047,4.556,0,2.839-1.886,4.768-4.323,4.768a2.884,2.884,0,0,1-2.861-1.716v3.708c0,1.314.191,1.42,1.8,1.547Zm8.73-8.794c0,2.649,1.06,3.772,2.734,3.772,1.4,0,2.628-1.081,2.628-3.9,0-2.628-1.06-3.666-2.479-3.666-1.462,0-2.9,1.144-2.9,3.666v.127Zm1.844,8.794h-5.043v-.593c1.377-.085,1.483-.254,1.483-1.547V12.3c0-1.314-.127-1.42-1.483-1.5V10.2l3.179-.254v2.034a3.329,3.329,0,0,1,3.2-2.119c2.267,0,4.047,1.8,4.047,4.556,0,2.839-1.886,4.768-4.323,4.768a2.884,2.884,0,0,1-2.861-1.716v3.708c0,1.314.191,1.42,1.8,1.547Zm9.747-14.261L225.93,7.55c.657-.848,1-1.25,1.526-1.25a.778.778,0,0,1,.784.763c0,.445-.254.72-1.462,1.4l-1.759.954Zm-3.433,5.446a4.518,4.518,0,0,1,4.323-4.662,3.643,3.643,0,0,1,3.729,3.729V14.2h-6.166v.3c0,2.458,1.017,3.793,2.861,3.793a3.3,3.3,0,0,0,2.712-1.526l.657.466a4.077,4.077,0,0,1-3.581,1.949c-2.818.021-4.535-1.822-4.535-4.662m1.95-1h4.28c-.042-1.928-.678-2.882-1.907-2.882s-2.14,1.017-2.373,2.882m10.235,4.768c.636,0,1-.911,1.081-1.038l.551.381a2.326,2.326,0,0,1-2.013,1.547c-1.293,0-1.992-.742-1.992-2.289V10.813h-1.462v-.636c1.526-.17,2.289-.7,2.564-3.327h.657v3.263h1.907v.7H232.9v6.293C232.9,18,233.071,18.293,233.516,18.293Zm3.179-10.871a1.123,1.123,0,1,1,1.124,1.123h0a1.132,1.132,0,0,1-1.123-1.123m-.975,10.955c1.144-.127,1.25-.254,1.25-1.547V12.318c0-1.293-.254-1.4-1.356-1.547V10.2l3.094-.254V16.81c0,1.314.106,1.42,1.4,1.547v.572H235.72Zm8.285-.085c.636,0,1-.911,1.081-1.038l.551.381a2.333,2.333,0,0,1-2.034,1.547c-1.293,0-1.992-.742-1.992-2.289V10.813h-1.653v-.636c1.759-.212,2.479-.7,2.755-3.327h.657v3.263h2.2v.7h-2.2v6.293c0,.89.191,1.187.636,1.187" transform="translate(-156.675 -5.081)" fill="#fff"/>
  </g>
</svg>
