<svg xmlns="http://www.w3.org/2000/svg" xmlns:xlink="http://www.w3.org/1999/xlink" width="256.083" height="78.42" viewBox="0 0 256.083 78.42">
  <defs>
    <clipPath id="clip-path">
      <rect id="Rectángulo_172" data-name="Rectángulo 172" width="253.809" height="69.605" fill="#fff7e3"/>
    </clipPath>
  </defs>
  <g id="Grupo_169" data-name="Grupo 169" transform="matrix(0.999, 0.035, -0.035, 0.999, 2.429, 0)" style="isolation: isolate">
    <path id="Trazado_312" data-name="Trazado 312" d="M12.195,0H243.9l-6.775,27.962L0,61.007Z" transform="translate(3.023 6.332)" fill="#fff7e3"/>
    <g id="Grupo_168" data-name="Grupo 168" transform="translate(0 0)">
      <g id="Grupo_167" data-name="Grupo 167" clip-path="url(#clip-path)">
        <path id="Trazado_313" data-name="Trazado 313" d="M.014,1.649C.133,1.226.291.539.427,0,.116,1.622-.052,2.4.014,1.649" transform="translate(9.601 28.199)" fill="#fff7e3"/>
        <path id="Trazado_314" data-name="Trazado 314" d="M4.556,0C3.357,5.821,1.445,15.033,0,20.658,1,15.453,3.5,1.289,4.556,0" transform="translate(10.028 7.54)" fill="#fff7e3"/>
        <path id="Trazado_315" data-name="Trazado 315" d="M0,7.093,1.709,0C1.018,4.363.852,3.361,0,7.093" transform="translate(8.274 23.023)" fill="#fff7e3"/>
        <path id="Trazado_316" data-name="Trazado 316" d="M.874,0,1.05.55,0,4.243Z" transform="translate(8.597 27.925)" fill="#fff7e3"/>
        <path id="Trazado_317" data-name="Trazado 317" d="M.6.674C.15.522-.133.327.064,0Z" transform="translate(196.325 36.191)" fill="#fff7e3"/>
        <path id="Trazado_318" data-name="Trazado 318" d="M0,.139C.891.1,1.511.05,2.042,0A10.012,10.012,0,0,1,0,.139" transform="translate(206.894 37.629)" fill="#fff7e3"/>
        <path id="Trazado_319" data-name="Trazado 319" d="M0,.3,1.751,0A9.942,9.942,0,0,1,0,.3" transform="translate(187.964 37.97)" fill="#fff7e3"/>
        <path id="Trazado_320" data-name="Trazado 320" d="M4.389.67,0,.354C3.16-.451,3.468.319,4.389.67" transform="translate(74.062 54.194)" fill="#fff7e3"/>
        <path id="Trazado_321" data-name="Trazado 321" d="M.018,1.875C.013,1.578,0,1.321,0,.993.208.383.378-.08.4.012A2.943,2.943,0,0,1,.3.62C.24.888.149,1.293.018,1.875" transform="translate(249.343 18.829)" fill="#fff7e3"/>
        <path id="Trazado_322" data-name="Trazado 322" d="M.015.55A.521.521,0,0,1,.227,0L.742.026Z" transform="translate(209.518 43.475)" fill="#fff7e3"/>
        <path id="Trazado_323" data-name="Trazado 323" d="M1.532.13l-.1.057L0,.131a2.2,2.2,0,0,1,1.532,0" transform="translate(179.512 39.88)" fill="#fff7e3"/>
        <path id="Trazado_324" data-name="Trazado 324" d="M1.731.867A7.1,7.1,0,0,1,0,0C1.339.183,1.964.566,1.731.867" transform="translate(240.48 0.455)" fill="#fff7e3"/>
        <path id="Trazado_325" data-name="Trazado 325" d="M.244,0c.02,0,0,.011.02.015L0,.035.244,0" transform="translate(208.937 37.594)" fill="#fff7e3"/>
        <path id="Trazado_326" data-name="Trazado 326" d="M0,.1,2.273,0A5.433,5.433,0,0,1,0,.1" transform="translate(195.247 45.409)" fill="#fff7e3"/>
        <path id="Trazado_327" data-name="Trazado 327" d="M0,0,1.392.116A2.8,2.8,0,0,1,0,0" transform="translate(78.451 54.864)" fill="#fff7e3"/>
        <path id="Trazado_328" data-name="Trazado 328" d="M.982,0C.5,2.341.24,2.8,0,3.137A31.713,31.713,0,0,1,.982,0" transform="translate(5.057 49.614)" fill="#fff7e3"/>
        <path id="Trazado_329" data-name="Trazado 329" d="M.552.023,0,.012A2.214,2.214,0,0,1,.552.023" transform="translate(17.148 9.901)" fill="#fff7e3"/>
        <path id="Trazado_330" data-name="Trazado 330" d="M0,0A3.219,3.219,0,0,1,.7.315C.249.419-.006.236,0,0" transform="translate(70.66 10.98)" fill="#fff7e3"/>
        <path id="Trazado_331" data-name="Trazado 331" d="M119.444,1.4c-3.458.575-7.031-.6-10.042-.662l1.027.489L107.393.815l.034.7c-5.017-.329-11.247.4-13.084-.718l.589,1.123-5.324-.89,3.048.76c-5.98.235-15.063-.638-16.34-.632l.539.419a7.491,7.491,0,0,1-2.771-.2l.787.627c-9.01-.171-11.474,1.244-21.532.584-2.74.152,1.519.2,1.562.556-1.5.5-5.019.022-5.781-.257.8.98,5.037.682,1.818,1.468-2.287-.483,1.56.908-2.465.714L46.9,3.815c-2.239.217-.448.984-3.987.859-4.041-.546,4.945-1.426-1.562-1.61-3.261.082-6.861,2.911-13.183,2.234-5.455.656,2.869,1.957-4.675,1.636l4.829.823c-1.249.356-.461.985-3.729.719A13.994,13.994,0,0,0,19.769,7.3c7.068.953-6.2,1.432.383,2.668L17.7,9.925c.3.048.383.17.221.265l-3.259.087c2.01.274,6.789.39,4.569,1.316l-4.72.231c1.259.7-.469.986-.2,1.547L28.2,14.716c-.545-.419-2.544-.692-1.8-1.115,3.705-.368,3.026.756,6.507.179l-1.538-.554c.276.211.766.277.006.349-1.22.36-1.755-.061-1.765-.411,1.22-.707,4.732-.232,5.778.257,4.508-.091.927-1.271,1.921-1.485,2.332,1.184,7.528-.031,10.321.518l-1.793-.766c3.431-.928,6.5-.166,8.513.106l-.779-.628c4.776.119,7.146-2,10.782.235l-.5-.42c1.96-.195,4.935-.664,6.812,0,.044-.263.377-.59,1.171-.668,1.062.863,3.1.21,5.986.056-1.916-.225-1.3-1.34-3.325-1.611C78.947,7.612,78.578,10,82.32,9.985c2.245-.571-2.012-.623-2.55-1.042,5.78.607,11.876-2.58,15.524-.348l-2.481.713c2.3.482,3.543.477,3.264.268a1.421,1.421,0,0,1-1.25-.347c6.94-1.153,10.856,1.639,17.862,1.189-.521-.419-1.522-.555-1.566-.907,3.226-.436,3.141,2.164,8.351,1.3l-1.022-.486c1.735-.291,3.021.41,2.787.55.136-1.9,11.027.092,14.658-2.381,2.553,1.042,9.862,1.854,12.1,1.28,3.2-1.136-2.837-1.252-1.646-2.311,2.509-.01,3.827,1.038,7.565.671.063,1.053-7.388,2.14-.355,2.742l.984-.568a10.994,10.994,0,0,1-2.749.153c-2.034-.623,1.22-.707,1.687-.991l7.551.319c.551,1.124-3.964.861-4.43,1.144C162.573,10.7,169.764,9.05,175.32,9.8l-.527-.42c7.084.954,4.135-2.054,9.77-.252,2.977-.293-1.073-1.191,3.422-1.279,1.27-.006.526.419.3.561,5.523.4,2.431-1.067,7.528-.034l-1.1-1.189c6.075.817,12.441,2.9,17.69,2.385-.314-.915-3.56-.83-4.852-1.525,7.111,1.653,17.056.206,23.628,1.092-1.964.781,3.111,1.813-1.1,2.463-1.088-1.189-3.063-.407-5.316-.539,3.644,2.586,15.232-1.258,16.347.984l.962-.917a9.386,9.386,0,0,1,.955.191,1.32,1.32,0,0,1,.428.31.35.35,0,0,1-.127.615q.948-.224,2.233-.448l-.179,1.054c.186-.419.429-.977.712-1.675a3.974,3.974,0,0,0-1.885-.984,4.32,4.32,0,0,0-1.268-.147,3.054,3.054,0,0,0-1.415.312c-2.062-.974,2.97-.646,1.144-1.762l1.177.384a3.863,3.863,0,0,0,.742.155,2.228,2.228,0,0,0,1.058-.16,7.387,7.387,0,0,1,2.96-.723c-.122.513-.289,1.153-.5,1.9-.057-.575-.309-.245-.612.376s-.665,1.57-1,2.465c-.678,1.818-1.244,3.392-1.378,3.151-.021.124-.019.142-.071.37l-.145.619c-.1.431-.225.894-.355,1.377-.262.967-.567,2.017-.88,3.047-.627,2.057-1.285,4.031-1.691,5.1-.1.385-.207.811-.325,1.272l-.175.725-.084.351-.037.175-.334,1.665-.537.169-.292.091-.152.045a1.8,1.8,0,0,1-.214.055l-2.675.532a36.983,36.983,0,0,1-5.184.65c1.777.178,4.585.351,4.415,1.22-2.3-.173-4.8.175-5.195,1.215,4.085.351,4.714-.3,5.244-1.016a2.534,2.534,0,0,1,1.14-1.007,4.83,4.83,0,0,1,1.3-.322c.284-.036.605-.062.971-.077l.14,0,.095,0,.2.01.441.035a4.189,4.189,0,0,0,1.118.505,20.334,20.334,0,0,0,1.174-3.07c.5-1.61,1.056-3.521,1.722-5.858-.39,3.1.064,1.967.161,3.455a47.659,47.659,0,0,0-2.449,7.048c-1.058.068-2.069.2-3.209.379l-3.418.569a31.482,31.482,0,0,1-6.788.565c-2.574-.348-.72-2.085-6.5-1.567l4.926-1.385c-5.423,1.384-1.308-.523-5.821-.18l1.821.524c-2.747.519-3.762.52-5.312.169l2.379.869c-1.478.347-4.219.866-4.285.171-.37.34-.493.587-.485.789-.3-.158-1-.189-2.74.082,1.023,0,1.755-.175,1.792.173-6.637.611-1.5,1.488-5.606,1.926.66.185-.493.683-1.958,1.026.023-1.875-8.123-1.027-10.316-1.77l.027.024-5.573,0c1.13,0-.061.672-1.665,1.084l.261-.043c-1.749.525,2.177,1.741-3.128,1.913l-2.8-.176c.5,0,.034.349-.221.525l-2.879-.122c-4.3,2.326-8.295.128-13.405,1.673,1.479-.348,3.745-.519,2.8.176a7.208,7.208,0,0,1-3.287.173l.267.174-9.851.168c.822.52,6.31-.17,3.887.869-1.415,1.043-4.266.522-6.029.694.206-.522,3.433-1.392.143-1.216-.391.3-3.489,1.222-2,1.377-3.38-.051-8.27.3-11.311-.168-.944.343.564.345,1.066.345l.236-.173c2.034,0,.363,1.218,4.316.175.4,1.57-5.71,1.216-9.185,1.909l5.6.35c-9.268,3.468-22,2.77-31.274,3.983,2.7-.868,4.995-.7,4.618-1.91-5.786.166-5.019.343-10.774.858h.5c-2.944,1.045-7.053.345-8.954,1.736,1.311.522,4.19-1.218,4.319.176L95.37,52.3c2.312.525,7.253-.864,10.025-1.037,1.99-.345-4.017.345-3.107-.7,6.767-.864,8.347-.168,11.73.7,2.068.7-2.915,1.389-4.172,1.565-4.366-.873-10.684-.7-17.369.856l-3.641,1.56c-3.362-.52-2.028-2.609-8.018-1.565l1.823.523a13.14,13.14,0,0,1-2.8.771c2.6.23,5.41.508,7.766.8-3.346,2.083-9.838.514-14.869.862.269.171,2.026,0,2.565.347-7.47,1.389-15.39.512-21.182,1.033-2.415,1.038,4.822-.175,3.674,1.04-3.057,0-6.453,1.387-7.306.519,1.386,1.217-6.981,1.04-1.113,1.565-10.932,2.079-23.047,2.417-34.152,3.11.555.348.568.7.115,1.042,3.747-.52,9.268-.862,11.388-.169-2.432,1.043-5.864-.173-6.554.344,1.272.175,3.767-.17,3.839.524-3.175,1.217-5.019.345-7.283.517l1.21-.519a14.819,14.819,0,0,1-5.579-.786,5.894,5.894,0,0,0-1.926-.245,22.988,22.988,0,0,0-3.725.474c-1.3.6-1.437.8-1.142.958.272.164.936.3.874.838a32.239,32.239,0,0,0-5.266.782,63.637,63.637,0,0,1,2.1-8.83L1.658,67.253c1.408-5.94,2.433-10.89,3.4-14.5a4.258,4.258,0,0,0-.666,1.642c1.062-4.148,2.155-9.659,2.971-11.6l-.336-1.6c-.27,2.722-1.8,10.368-2.4,11.431-.359-1.078,1.557-8.563,2.216-11.963C5.3,47.7,4.272,51.285,3.381,54.5c-.118.431-.208.733-.342,1.262l-.4,1.572c-.267,1.072-.538,2.2-.819,3.429C1.26,63.216.654,66.108,0,69.605l1.361-.271L.3,69.2l.179-.655-.08.519a33.439,33.439,0,0,1,4.362-.81c.692-.083,1.379-.145,2.07-.2l1.042-.068.94-.041a57.635,57.635,0,0,0,6.387-.3c-1.13.383-1.344.825-.8.941,8.913-2.079,17.742-2.6,27.92-4.5l3.116.7.155-.869c4.975-1.042,1.13,1.042,4.342.528-1.223.168-1.008,0-1.267-.179,5.831.18,3.186-1.216,6.446-1.386-1.582-.7-6.278.518-4.877-.874,5.818.18,14.783-1.555,15.713.361,10.7-2.257,24.049-2.771,33.075-3.805,1.215-.522-.779-.176-.318-.523,3.614.7,11.933-2.428,12.032-1.385a7.032,7.032,0,0,0,2.859-1.734,49.343,49.343,0,0,0,7.974-.171l-2.139,0,.226-.173,3.036,0-.11.081c7.251-.672,15.6-2.048,22.218-1.8-3.81-.179.9-1.395-.9-1.567,3.406,1.22,11.409.183,17.892-.858-.043-.348.449-.7-.324-.872l3.791.181-.516-.351c6.725-1.213,14.139-.339,18.555-1.726-2.759.171-2.788-.178-3.087-.7,4.829-.606,9.383-1.2,15.043-1.449-.307-.062-.507-.154-.522-.279a22.259,22.259,0,0,1,4.785-.17l.17-.867c2.9,0,6.608-.93,10.064-.719,1.306-1.1,8.341-.261,12.283-1.181,1.523,0-3.34-.522.91-1.042.676,1.741,5.516-.694,5.929,1.223l3.684-1.215.86.868a5.026,5.026,0,0,1,4.112-.917c.694.084,1.436.2,2.289.233l.325.006a3.8,3.8,0,0,0,.434-.017l1.338-.128c.926-.106,1.924-.253,2.976-.458l.113-.491c-.048.1-.1.227-.155.379-.515-.071-1.1-.06-.768-.22l.665-.048c.324-1.189.709-2.606,1.075-3.947l.533-1.942.24-.858.11-.387c.021-.066.041-.128.06-.186.154-.472.259-.727.275-.59a2.807,2.807,0,0,1-.049.518c-.011.071-.023.15-.036.236-.02.111-.015.124-.065.355-.082.385-.178.833-.288,1.349l2.7-10.517c.806-3.247,1.22-5.242.166-2.305.4-.224-1.295,5.35-2.026,7.765-.342-.677,1.386-6.741,1.311-8.662.1-.171.37-.9.6-1.474l.1-1.649c1.516-5.1,2.99-10.692,4.368-15.969-2.221-.058-4.391-.1-6.437-.221-1.024-.058-2.021-.135-2.994-.242l-.726-.086-.36-.047a2.457,2.457,0,0,1-.305-.05q-.4-.1-.777-.236c-.2.261-1.025.462-2.645.4L239.495.669l-5.013.024,2.347,1.534c-5.5.306-9.371-1.436-13.889-1.7-1.162,1.761-8.818-.666-12.73.9l3.53.477c-7.543-.32-8.744.741-15.779.138,5.969-.589,6-.236,14.7-1.677-8.728.738-15.079-.994-23.07.029.534.417,2.54.688.584,1.12-1.56-.907-7.528.032-6.345-1.027-2.481.359-2.914,1.348-4.43,1.493l-8.328-1.3.255.21c-14.157,2.45-26.427-1.644-40.634-.6l.275.563L127.406.026c2.786.55-1.207.707-1.426,1.2L116.879,0c-.2.493.331,1.615,2.564,1.4M239.3,1.868l2.155.076a3.821,3.821,0,0,1,1.367.047l-1.367-.047c-1.108.139-1.921.582-2.155-.076M71.171,61.152c-1.054-.349,1.485-.349,2.2-.517l-3.5.343c-.474.348.79.171,1.3.174M239.421,8.681l-1.2.707-1.538-.554Zm-30.578.061,3.048.409-.256.142-3.016-.409ZM174.872,3.054a5.527,5.527,0,0,1,.588.14,3.5,3.5,0,0,1-.588-.14c-2.353-.509-3.29.756-5.205-.471,2.35-1.049,3.86.039,5.205.471m53.719-.017a8.787,8.787,0,0,0,2.268.13c-.53-.42-2.577-1.041-1.078-1.19,1.043.488,4.538.612,4.588,1.315-3.041-.76-5.191,1.217-5.778-.256M208.175,43.157l.76-.176-2.82-.171Zm-13.063,1.035c-1.588-.7-5.569,0-8.334.168-.682.871,2.155,1.392,5.4.873,3.825.175,1.385-1.39,2.937-1.041m10-39.79.774.627-.729.076,3.021.407c-3.969.862-6.806-.744-8.833-1.016,1.773.063,6.614,1.59,5.768-.094m-37.8,43.078c-2.8-.178-7.84-.181-7.407-.877-.129,1.216,3.918,1.22,5.169,1.047a8.661,8.661,0,0,1,2.238-.17m.057-2.264c4.052,0,4.351.523,7.473,1.222-3.969,1.041-5.121-.348-4.672-1.044-2.8-.178-2.232.522-3.711.866ZM171.689,48l1.635-.384c1.921-.756,2.27-2.162,5.048-1.176l-5.048,1.176a5.832,5.832,0,0,1-1.635.384M137.8,52.487l1.672.188c-1.635.179-1.832.025-1.672-.188l-1.393-.163c3.574-.914,1.742-.252,1.393.163m25.829-3.793,4.766-.518c-.3-.525-3.256.168-4.766.518m-24.81,2.591c2-.348,7.229-1.213,6.5-1.041-.449.7-5.217,1.216-6.5,1.041M33.677,63.737l3-.343-1.415,1.041Zm35.182-5.365-.724.522-1.748.173Zm32.46-4.419c-.148.2-.054.424.223.581a2.36,2.36,0,0,1,1.145.206,1.785,1.785,0,0,1-1.145-.206,12.647,12.647,0,0,0-4.113.725c.539.347,2.54,0,3.325.173-2.927,1.391-9.718-.7-7.7,1.911-1.272-.175-5.6-.351-4.137-1.048a72.355,72.355,0,0,0,12.4-2.342,1.623,1.623,0,0,1,1.006-.431,4.3,4.3,0,0,1-1.006.431m43.726-6.489a8.1,8.1,0,0,1,2.012-.019c1.064.071,1.88.283,1.585.718-2.579,0-.953-.546-1.585-.718a12.978,12.978,0,0,0-2.012.019m7.728-1.212-4.037,0,2.049.349-6.1-.353c3.45-1.041,7.521-.689,8.09.006m1.39-.74.856.573-1.3-.529.439-.043-.2-.13,6.782-.515ZM223.345,37.6c2.439-2.7-6.051-.873-7.42-1.836-.25.828-2.765,2.4,3.842,1.487-5.677,1.561-3.64-1.048-6.958,1.386a33.168,33.168,0,0,1,6.538-.342l-3.219.515c1.885,1.218,4.932-1.386,7.217-1.211M248.953,9.02l.426-1.663-3.232-.041,3.132.156-.347,1.289ZM145.38,8.031c.3.559-5.175,1.569-6.477.518,2.758-.153,5.772-.1,6.477-.518m-45.117-.158,4.779.471c-.922,1.269-4.268-.052-6.509.169-.779-.628.986-.215,1.73-.64M69.172,7.864l-1.521-.2,1.6,1.257Zm2.092,1.677c-.959.566,2.307.835,3.076.761ZM43.255,10.646l1.993-.079-1.8-1.117Zm3.174-1.312c.469.8.27,1.885,4.858,1.346.19-.845-1.058-.837.645-1.829a12.439,12.439,0,0,0-3.5.225c1.028.138,2.243-.22,2.525.342a10.873,10.873,0,0,1-4.525-.083,1.354,1.354,0,0,0-1.019-.666c.015.257.4.493,1.019.666m16.622-.886a4.937,4.937,0,0,0,1.37-.354l.276.212a1.944,1.944,0,0,1-1.646.142c-.664.111-1.436.207-2.232.3-.509.712,2.633,1.2,3.461,1.595-1.495-.2-2.788-.9-4.77-.469.262.209.012.353,1.261.343l-2.736.155c-3.133-.991-.141-1.3,2.784-1.623.093-.156.314-.32.868-.5a2.815,2.815,0,0,1,1.364.2M41.057,6.861l1.5.2c.77.277.28.56.549.77-1.757-.063-4.05-.545-2.049-.975m89.98-.246c-1,.216,1.3,1.049,3.542.83L133.388,8.5c-.056-.7-4.549-.612-5.053-.682-.794-.979.956-.564,2.7-1.206M235.566,6.59c.814,1.333,6.545.533,7.8.882-2.966.292-9.743.6-7.8-.882m10.359-.54c1.836.016,2.434-.109,1.852.56a8.043,8.043,0,0,0,2.169.088c-.126.483-.262.958-.419,1.4l.221-1.167c-2.615.288-2-.622-3.823-.878-.48,0-1.021-.016-1.7-.057a8.452,8.452,0,0,1,1.7.057m-61.532-.084-2.082-.975-3.251.084ZM149.446,4.218c.267.561-3.467.578-4.244.3.239.738,2.742.643,4.734.722a6.108,6.108,0,0,0,1.311.1c-.39-.053-.822-.078-1.311-.1-.746-.173-.227-.551-.227-.81l.99-.216-2.755-.2ZM87.992,3.425a7.123,7.123,0,0,1-4,.16,9.822,9.822,0,0,1,4-.16m79.977.152c-3.758.368,1.806,1.115-.661,1.478l1.969-.077c-3.2.785-2.28-.836-4.528-.614l1.5-.147c1.189-.708-2.3-.483-2.586-1.043,1.755-.291,5.8.255,4.3.4M84.462,2.951c-3.72.719-3.063-.76-5.317-.89,2.964-.647,2.531.692,5.317.89m59.827-1.523.236-.139L141.5.879l-.24.142Z" transform="translate(0 0)" fill="#fff7e3"/>
        <path id="Trazado_332" data-name="Trazado 332" d="M2.025.018A9.374,9.374,0,0,1,0,.037,19.48,19.48,0,0,1,2.025.018" transform="translate(77.816 10.331)" fill="#fff7e3"/>
        <path id="Trazado_333" data-name="Trazado 333" d="M.03,0C.121.1.106.4.041.813A1.942,1.942,0,0,1,.03,0" transform="translate(245.083 15.332)" fill="#fff7e3"/>
        <path id="Trazado_334" data-name="Trazado 334" d="M.243,0C.2.153.162.315.127.453.091.55.041.688,0,.8Z" transform="translate(241.854 26.206)" fill="#fff7e3"/>
        <path id="Trazado_335" data-name="Trazado 335" d="M.809.609C1.318-.552,1.2.1.91,1.3.758,1.9.57,2.646.386,3.369l-.229.9C.1,4.51.041,4.741,0,4.937.081,4.545.128,4.2.164,3.883.213,3.472.257,3.107.3,2.756A8.335,8.335,0,0,1,.809.609" transform="translate(4.938 53.049)" fill="#fff7e3"/>
        <path id="Trazado_336" data-name="Trazado 336" d="M1.257,2.6A4.51,4.51,0,0,0,0,2.388C.193,1.653.391.845.586,0,.457.657.3,1.364.041,2.335A6.4,6.4,0,0,1,1.257,2.6" transform="translate(2.462 63.883)" fill="#fff7e3"/>
        <path id="Trazado_337" data-name="Trazado 337" d="M1.484,0C.964,3.042.492,5.414,0,7.546c.183-.939.3-1.769.5-2.921S1,2,1.484,0" transform="translate(3.048 56.337)" fill="#fff7e3"/>
        <path id="Trazado_338" data-name="Trazado 338" d="M6.43.964A13.97,13.97,0,0,0,1.9,1.309C8.358-.079.555.439,0,.094,4.038-.254,4.092.441,6.43.964" transform="translate(23.603 61.728)" fill="#fff7e3"/>
        <path id="Trazado_339" data-name="Trazado 339" d="M1.79,0A12.924,12.924,0,0,0,0,.349,6.3,6.3,0,0,1,1.79,0" transform="translate(36.83 61.825)" fill="#fff7e3"/>
        <path id="Trazado_340" data-name="Trazado 340" d="M2.388.033A7.971,7.971,0,0,1,6.5.731C3.8,1.547,2.028.78,0,.9,1.589.67,3.147.53,2.388.033" transform="translate(38.62 60.927)" fill="#fff7e3"/>
        <path id="Trazado_341" data-name="Trazado 341" d="M1.806.693C1.287.693.049.866,0,.52L3.753,0c1.514,0-1.2.519-1.948.693" transform="translate(108.159 47.965)" fill="#fff7e3"/>
        <path id="Trazado_342" data-name="Trazado 342" d="M0,1.038C3,.692,1.4,0,2.929,0L2.808,1.213Z" transform="translate(123.876 47.455)" fill="#fff7e3"/>
        <path id="Trazado_343" data-name="Trazado 343" d="M.889.093H0L1.014,0Z" transform="translate(121.567 54.658)" fill="#fff7e3"/>
        <path id="Trazado_344" data-name="Trazado 344" d="M2.127,1.046,0,0C2.531,0,2.61,1.051,2.127,1.046" transform="translate(136.137 44.327)" fill="#fff7e3"/>
        <path id="Trazado_345" data-name="Trazado 345" d="M1.777.517,0,.343,5.525,0Z" transform="translate(147.887 42.429)" fill="#fff7e3"/>
        <path id="Trazado_346" data-name="Trazado 346" d="M0,.519.476.173,4.265,0Z" transform="translate(163.477 41.218)" fill="#fff7e3"/>
        <path id="Trazado_347" data-name="Trazado 347" d="M.038.946C-.535-.176,5.5.291,7.253,0,6.05,1.412,2.441-.469.038.946" transform="translate(194.598 8.841)" fill="#fff7e3"/>
        <path id="Trazado_348" data-name="Trazado 348" d="M0,0,5.763.257C1.3.7,4.517.261,0,0" transform="translate(85.085 9.835)" fill="#fff7e3"/>
      </g>
    </g>
  </g>
</svg>
