<svg xmlns="http://www.w3.org/2000/svg" xmlns:xlink="http://www.w3.org/1999/xlink" width="245.455" height="71.263" viewBox="0 0 245.455 71.263">
  <defs>
    <clipPath id="clip-path-btn-blue">
      <rect id="Rectángulo_172" data-name="Rectángulo 172" width="243.411" height="62.807" fill="#081346"/>
    </clipPath>
  </defs>
  <g id="Grupo_169" data-name="Grupo 169" transform="matrix(0.999, 0.035, -0.035, 0.999, 2.192, 0)" style="isolation: isolate">
    <path id="Trazado_312" data-name="Trazado 312" d="M11.723,0H234.467l-6.513,25.231L0,55.049Z" transform="translate(2.728 5.714)" fill="#081346"/>
    <g id="Grupo_168" data-name="Grupo 168" transform="translate(0 0)">
      <g id="Grupo_167" data-name="Grupo 167" clip-path="url(#clip-path-btn-blue)">
        <path id="Trazado_313" data-name="Trazado 313" d="M.014,1.488C.128,1.106.279.486.409,0c-.3,1.464-.459,2.164-.4,1.488" transform="translate(9.208 25.444)" fill="#081346"/>
        <path id="Trazado_314" data-name="Trazado 314" d="M4.37,0C3.219,5.253,1.386,13.565,0,18.64.958,13.943,3.352,1.163,4.37,0" transform="translate(9.617 6.803)" fill="#081346"/>
        <path id="Trazado_315" data-name="Trazado 315" d="M0,6.4,1.639,0C.976,3.937.817,3.033,0,6.4" transform="translate(7.935 20.775)" fill="#081346"/>
        <path id="Trazado_316" data-name="Trazado 316" d="M.838,0l.169.5L0,3.828Z" transform="translate(8.245 25.198)" fill="#081346"/>
        <path id="Trazado_317" data-name="Trazado 317" d="M.577.609C.144.471-.128.295.061,0Z" transform="translate(188.282 32.656)" fill="#081346"/>
        <path id="Trazado_318" data-name="Trazado 318" d="M0,.126C.854.09,1.449.045,1.958,0A10.193,10.193,0,0,1,0,.126" transform="translate(198.418 33.954)" fill="#081346"/>
        <path id="Trazado_319" data-name="Trazado 319" d="M0,.275,1.68,0A10.081,10.081,0,0,1,0,.275" transform="translate(180.264 34.262)" fill="#081346"/>
        <path id="Trazado_320" data-name="Trazado 320" d="M4.209.6,0,.32C3.031-.407,3.325.288,4.209.6" transform="translate(71.028 48.901)" fill="#081346"/>
        <path id="Trazado_321" data-name="Trazado 321" d="M.017,1.692C.012,1.424,0,1.192,0,.9.2.346.362-.072.381.011A2.509,2.509,0,0,1,.288.56C.23.8.143,1.167.017,1.692" transform="translate(239.128 16.99)" fill="#081346"/>
        <path id="Trazado_322" data-name="Trazado 322" d="M.015.5a.457.457,0,0,1,.2-.5L.712.024Z" transform="translate(200.935 39.229)" fill="#081346"/>
        <path id="Trazado_323" data-name="Trazado 323" d="M1.469.117,1.378.169,0,.118a2.235,2.235,0,0,1,1.469,0" transform="translate(172.158 35.985)" fill="#081346"/>
        <path id="Trazado_324" data-name="Trazado 324" d="M1.66.782A6.988,6.988,0,0,1,0,0C1.284.165,1.884.511,1.66.782" transform="translate(230.628 0.411)" fill="#081346"/>
        <path id="Trazado_325" data-name="Trazado 325" d="M.234,0c.019,0,0,.01.019.013L0,.031.234,0" transform="translate(200.377 33.922)" fill="#081346"/>
        <path id="Trazado_326" data-name="Trazado 326" d="M0,.092,2.18,0A5.53,5.53,0,0,1,0,.092" transform="translate(187.249 40.974)" fill="#081346"/>
        <path id="Trazado_327" data-name="Trazado 327" d="M0,0,1.335.1A2.842,2.842,0,0,1,0,0" transform="translate(75.237 49.505)" fill="#081346"/>
        <path id="Trazado_328" data-name="Trazado 328" d="M.942,0C.48,2.112.23,2.523,0,2.831A27.4,27.4,0,0,1,.942,0" transform="translate(4.85 44.768)" fill="#081346"/>
        <path id="Trazado_329" data-name="Trazado 329" d="M.529.021,0,.011a2.256,2.256,0,0,1,.529.01" transform="translate(16.445 8.934)" fill="#081346"/>
        <path id="Trazado_330" data-name="Trazado 330" d="M0,0A3.185,3.185,0,0,1,.672.285C.239.378-.006.213,0,0" transform="translate(67.766 9.907)" fill="#081346"/>
        <path id="Trazado_331" data-name="Trazado 331" d="M114.55,1.26c-3.316.519-6.743-.542-9.631-.6l.985.442-2.91-.369.033.633c-4.812-.3-10.787.361-12.548-.648l.565,1.013L85.937.93l2.923.686c-5.735.212-14.446-.576-15.67-.57l.517.378a7.622,7.622,0,0,1-2.658-.178l.755.566c-8.641-.155-11,1.123-20.65.527-2.628.137,1.457.185,1.5.5a14.1,14.1,0,0,1-5.544-.232c.764.884,4.83.615,1.743,1.325-2.194-.436,1.5.819-2.364.644L44.977,3.443c-2.147.2-.43.888-3.824.776-3.876-.493,4.743-1.287-1.5-1.452-3.128.074-6.58,2.627-12.643,2.016-5.231.592,2.751,1.766-4.484,1.476L27.159,7c-1.2.322-.442.889-3.577.649a14.108,14.108,0,0,0-4.623-1.06c6.778.86-5.942,1.292.367,2.407l-2.352-.041c.292.044.367.154.212.239l-3.125.078c1.927.248,6.511.352,4.381,1.188l-4.526.208c1.208.628-.45.89-.187,1.4l13.314,1.214c-.523-.378-2.44-.624-1.726-1.006,3.554-.332,2.9.682,6.24.161l-1.475-.5c.265.191.734.25.006.315-1.17.325-1.683-.055-1.693-.371,1.17-.638,4.538-.21,5.542.232,4.323-.082.889-1.146,1.842-1.34,2.237,1.068,7.22-.028,9.9.467l-1.72-.691c3.291-.837,6.237-.15,8.164.1l-.747-.567c4.581.108,6.853-1.8,10.34.212l-.483-.379c1.88-.176,4.733-.6,6.533,0,.042-.238.361-.532,1.123-.6,1.018.779,2.971.189,5.741.05-1.838-.2-1.251-1.209-3.188-1.454,4.273-1.033,3.919,1.123,7.508,1.108,2.153-.516-1.93-.563-2.445-.94,5.543.548,11.39-2.328,14.888-.314L89.01,8.4c2.2.435,3.4.43,3.13.242a1.418,1.418,0,0,1-1.2-.313c6.656-1.04,10.411,1.479,17.13,1.072-.5-.378-1.46-.5-1.5-.818,3.093-.393,3.012,1.952,8.009,1.171l-.98-.438c1.664-.262,2.9.37,2.673.5C116.4,8.1,126.847,9.9,130.33,7.664c2.448.94,9.458,1.673,11.6,1.155,3.072-1.025-2.72-1.13-1.579-2.086,2.407-.009,3.67.937,7.255.605.06.95-7.085,1.931-.34,2.474l.944-.512a11.2,11.2,0,0,1-2.637.138c-1.95-.563,1.17-.638,1.618-.894l7.242.288c.529,1.014-3.8.777-4.249,1.032,5.73-.213,12.626-1.7,17.954-1.023l-.5-.379c6.793.861,3.966-1.854,9.37-.227,2.855-.264-1.029-1.075,3.282-1.154,1.218-.006.5.378.287.507,5.3.359,2.331-.963,7.22-.03l-1.054-1.072c5.826.737,11.931,2.615,16.965,2.152-.3-.826-3.414-.749-4.654-1.376,6.82,1.492,16.357.186,22.66.985-1.884.7,2.983,1.636-1.054,2.222-1.043-1.072-2.937-.368-5.1-.486,3.495,2.333,14.608-1.135,15.677.888l.923-.827c.242.03.576.093.916.173a1.265,1.265,0,0,1,.411.28c.194.2.178.425-.122.555q.91-.2,2.142-.4l-.171.951c.179-.378.411-.882.683-1.512a3.89,3.89,0,0,0-1.807-.888,4.391,4.391,0,0,0-1.216-.132,3.082,3.082,0,0,0-1.357.281c-1.977-.879,2.848-.583,1.1-1.59l1.129.346a3.91,3.91,0,0,0,.712.14,2.258,2.258,0,0,0,1.015-.145,7.44,7.44,0,0,1,2.839-.652c-.117.463-.277,1.04-.477,1.716-.055-.519-.3-.221-.587.34s-.638,1.417-.96,2.225c-.651,1.641-1.193,3.061-1.322,2.843-.02.112-.018.128-.068.334l-.139.558c-.1.389-.216.807-.341,1.243-.251.873-.544,1.82-.844,2.749-.6,1.856-1.233,3.638-1.622,4.6-.094.347-.2.732-.312,1.148l-.168.654-.08.317-.036.158-.32,1.5-.515.152-.28.082-.146.04a1.811,1.811,0,0,1-.205.049l-2.565.48a37.594,37.594,0,0,1-4.971.586c1.7.16,4.4.317,4.234,1.1-2.206-.156-4.608.158-4.982,1.1,3.917.317,4.521-.27,5.029-.917a2.385,2.385,0,0,1,1.093-.909,4.87,4.87,0,0,1,1.248-.29c.272-.032.581-.056.931-.069l.134,0,.091,0,.189.009.423.031a4.143,4.143,0,0,0,1.072.456,17.711,17.711,0,0,0,1.126-2.77c.482-1.452,1.013-3.177,1.651-5.286-.374,2.8.061,1.775.155,3.118a41.325,41.325,0,0,0-2.349,6.36c-1.014.062-1.984.182-3.078.342l-3.278.513a32.041,32.041,0,0,1-6.51.51c-2.469-.314-.69-1.882-6.232-1.414l4.724-1.25c-5.2,1.248-1.254-.472-5.582-.162l1.747.473a11.336,11.336,0,0,1-5.094.152l2.281.784c-1.418.313-4.046.781-4.109.155-.355.307-.473.53-.465.712a5.675,5.675,0,0,0-2.628.074c.981,0,1.684-.158,1.718.156-6.366.551-1.435,1.343-5.377,1.738.633.167-.473.616-1.878.926.022-1.692-7.79-.927-9.893-1.6l.026.021-5.344,0c1.084,0-.059.606-1.6.978l.25-.039c-1.678.474,2.088,1.571-3,1.726l-2.684-.159c.479,0,.032.315-.212.474l-2.761-.11c-4.126,2.1-7.955.115-12.856,1.51,1.419-.314,3.592-.468,2.685.159a7.333,7.333,0,0,1-3.153.156l.256.157-9.447.151c.788.47,6.051-.154,3.728.784-1.357.941-4.091.471-5.782.626.2-.471,3.293-1.256.137-1.1-.375.267-3.347,1.1-1.921,1.243-3.241-.046-7.931.271-10.848-.151-.906.309.541.312,1.022.312l.226-.156c1.951,0,.348,1.1,4.139.158.382,1.417-5.476,1.1-8.808,1.722l5.372.316c-8.888,3.129-21.1,2.5-29.993,3.594,2.589-.783,4.79-.628,4.429-1.724-5.549.15-4.813.309-10.333.774h.476c-2.824.942-6.764.312-8.588,1.567,1.258.471,4.018-1.1,4.142.159l-6.955.78c2.217.474,6.955-.78,9.614-.936,1.908-.312-3.852.312-2.979-.631,6.489-.78,8-.151,11.249.634,1.983.633-2.8,1.253-4,1.412-4.187-.788-10.247-.634-16.657.772L85.2,49.853c-3.225-.47-1.945-2.355-7.689-1.412l1.748.472a13.235,13.235,0,0,1-2.683.7c2.5.207,5.188.458,7.448.718-3.209,1.879-9.435.464-14.26.778.258.155,1.943,0,2.46.313-7.164,1.253-14.759.462-20.314.932-2.316.937,4.624-.158,3.523.938-2.931,0-6.188,1.252-7.007.468,1.33,1.1-6.7.938-1.067,1.412-10.485,1.876-22.1,2.181-32.753,2.806.532.314.545.629.11.94,3.593-.47,8.889-.778,10.922-.152-2.333.941-5.624-.156-6.286.31,1.219.158,3.613-.154,3.682.473-3.045,1.1-4.813.312-6.984.466l1.161-.468a15.023,15.023,0,0,1-5.35-.709,5.985,5.985,0,0,0-1.847-.221,23.366,23.366,0,0,0-3.573.428c-1.244.544-1.378.718-1.1.864.261.148.9.272.838.756a32.74,32.74,0,0,0-5.05.706A54.615,54.615,0,0,1,3.146,53.4L1.591,60.684c1.35-5.36,2.333-9.826,3.26-13.085a3.729,3.729,0,0,0-.639,1.482c1.018-3.743,2.066-8.715,2.85-10.464l-.322-1.442c-.259,2.456-1.73,9.355-2.3,10.315C4.1,46.517,5.934,39.762,6.566,36.7,5.081,43.043,4.1,46.276,3.242,49.179c-.113.389-.2.661-.328,1.139l-.383,1.419c-.256.967-.516,1.985-.786,3.094C1.208,57.042.628,59.651,0,62.807l1.305-.244L.284,62.445l.172-.591-.076.468a33.886,33.886,0,0,1,4.184-.731c.664-.075,1.322-.131,1.985-.177l1-.062.9-.037a58.719,58.719,0,0,0,6.126-.273c-1.084.345-1.289.744-.769.849,8.548-1.876,17.016-2.343,26.776-4.06l2.988.629.149-.784c4.771-.94,1.084.94,4.165.476-1.173.151-.967,0-1.215-.161,5.592.162,3.055-1.1,6.182-1.251-1.517-.628-6.021.467-4.677-.789,5.58.162,14.177-1.4,15.07.326,10.257-2.036,23.063-2.5,31.72-3.434,1.165-.471-.747-.159-.305-.472,3.466.629,11.444-2.191,11.539-1.25a6.811,6.811,0,0,0,2.742-1.564,50.282,50.282,0,0,0,7.648-.155l-2.051,0,.217-.156,2.912,0-.105.073c6.953-.606,14.965-1.848,21.307-1.627-3.654-.161.863-1.259-.867-1.414,3.267,1.1,10.942.165,17.159-.774-.041-.314.43-.628-.311-.787l3.636.164-.5-.317c6.45-1.095,13.56-.306,17.795-1.558-2.646.155-2.674-.16-2.96-.632,4.631-.547,9-1.08,14.426-1.308-.294-.056-.486-.139-.5-.252a22.677,22.677,0,0,1,4.589-.154l.163-.782c2.782,0,6.337-.839,9.652-.649,1.252-1,8-.235,11.78-1.066,1.461,0-3.2-.471.873-.94.649,1.571,5.29-.626,5.686,1.1l3.533-1.1.825.783a5.059,5.059,0,0,1,3.944-.827c.666.076,1.378.185,2.2.211l.312.006a3.867,3.867,0,0,0,.417-.016L232,37.272c.889-.1,1.845-.229,2.854-.414l.108-.443c-.046.091-.1.205-.149.342-.494-.064-1.051-.054-.737-.2l.637-.044c.31-1.072.68-2.351,1.031-3.561l.511-1.753.23-.774.105-.35c.02-.059.04-.115.057-.168.148-.426.248-.656.264-.532a2.388,2.388,0,0,1-.047.467l-.035.213c-.019.1-.014.112-.063.321-.079.347-.171.752-.276,1.217l2.589-9.49c.773-2.929,1.17-4.73.159-2.08.382-.2-1.242,4.828-1.943,7.006-.328-.611,1.329-6.083,1.257-7.816.095-.155.355-.811.575-1.33l.094-1.488c1.454-4.6,2.867-9.648,4.189-14.41-2.13-.053-4.211-.093-6.173-.2-.982-.053-1.938-.122-2.871-.219l-.7-.077-.345-.043a2.5,2.5,0,0,1-.293-.045q-.383-.094-.746-.213c-.191.235-.983.417-2.537.364L229.683.6l-4.807.021,2.251,1.384c-5.275.276-8.987-1.3-13.32-1.53-1.114,1.589-8.456-.6-12.209.809l3.385.43c-7.234-.289-8.386.669-15.133.124A135.275,135.275,0,0,0,203.945.331c-8.37.666-14.461-.9-22.125.026.512.377,2.436.621.56,1.011-1.5-.818-7.22.029-6.085-.927-2.379.324-2.794,1.216-4.249,1.347L164.059.615,164.3.8C150.726,3.016,138.959-.679,125.334.263l.264.508L122.187.024c2.672.5-1.157.638-1.368,1.083L112.091,0c-.2.445.318,1.457,2.459,1.26m114.942.426,2.067.068a3.89,3.89,0,0,1,1.311.043l-1.311-.043c-1.063.126-1.842.526-2.067-.068M68.255,55.179c-1.011-.315,1.424-.315,2.111-.466l-3.36.309c-.454.314.758.155,1.249.157M229.613,7.833l-1.153.638-1.475-.5Zm-29.325.055,2.923.369-.245.128-2.892-.369Zm-32.58-5.133a5.58,5.58,0,0,1,.564.127,3.537,3.537,0,0,1-.564-.127c-2.257-.459-3.155.682-4.992-.425,2.254-.947,3.7.035,4.992.425m51.519-.016a8.947,8.947,0,0,0,2.175.118c-.508-.379-2.471-.939-1.034-1.074,1,.44,4.352.552,4.4,1.187-2.916-.686-4.979,1.1-5.542-.231m-19.58,36.2.729-.159-2.7-.155Zm-12.528.934c-1.523-.628-5.34,0-7.992.151-.654.786,2.067,1.256,5.176.788,3.668.158,1.328-1.254,2.817-.939m9.589-35.9.742.566-.7.068,2.9.368c-3.807.778-6.527-.671-8.472-.917,1.7.057,6.343,1.434,5.532-.085m-36.253,38.87c-2.686-.16-7.519-.164-7.1-.791-.123,1.1,3.757,1.1,4.957.945a8.815,8.815,0,0,1,2.146-.154m.055-2.043c3.886,0,4.173.472,7.167,1.1-3.806.939-4.911-.314-4.481-.942-2.686-.16-2.14.471-3.559.781Zm4.145,2.514,1.568-.346c1.842-.682,2.177-1.951,4.841-1.061l-4.841,1.061a5.886,5.886,0,0,1-1.568.346m-32.5,4.048,1.6.169c-1.568.161-1.757.022-1.6-.169l-1.335-.147c3.428-.825,1.671-.227,1.335.147m24.771-3.423,4.571-.467c-.285-.474-3.122.151-4.571.467m-23.794,2.338c1.921-.314,6.932-1.095,6.238-.939-.43.628-5,1.1-6.238.939M32.3,57.512l2.881-.309-1.357.939ZM66.038,52.67l-.695.471-1.676.156Zm31.13-3.987c-.142.185-.052.382.214.524a2.387,2.387,0,0,1,1.1.186,1.8,1.8,0,0,1-1.1-.186,12.812,12.812,0,0,0-3.944.654c.517.313,2.436,0,3.189.156-2.807,1.255-9.32-.631-7.382,1.725-1.22-.158-5.373-.317-3.967-.946a73.294,73.294,0,0,0,11.891-2.114,1.6,1.6,0,0,1,.965-.389,4.261,4.261,0,0,1-.965.389M139.1,42.827a8.248,8.248,0,0,1,1.93-.017c1.02.064,1.8.256,1.52.648-2.473,0-.914-.493-1.52-.648a13.225,13.225,0,0,0-1.93.017m7.411-1.094-3.872,0,1.965.315-5.851-.318c3.308-.939,7.213-.622,7.758.006m1.333-.668.821.517-1.242-.477.421-.039-.189-.118,6.5-.465ZM214.2,33.929c2.339-2.439-5.8-.788-7.116-1.656-.24.747-2.652,2.167,3.685,1.341-5.445,1.409-3.491-.946-6.673,1.251a33.787,33.787,0,0,1,6.271-.308l-3.088.465c1.808,1.1,4.73-1.251,6.921-1.093m24.558-25.79.409-1.5-3.1-.037,3,.141-.333,1.163Zm-99.33-.893c.288.5-4.963,1.415-6.212.467,2.645-.138,5.536-.086,6.212-.467M96.155,7.1l4.583.425c-.884,1.145-4.093-.047-6.242.152-.747-.567.945-.194,1.659-.577M66.338,7.1l-1.459-.184,1.533,1.134Zm2.006,1.513c-.92.511,2.212.753,2.95.687Zm-26.861,1,1.911-.072L41.666,8.527Zm3.044-1.183c.45.724.259,1.7,4.659,1.215.183-.762-1.014-.755.619-1.651a12.661,12.661,0,0,0-3.359.2c.985.124,2.152-.2,2.421.308a11.067,11.067,0,0,1-4.34-.075,1.3,1.3,0,0,0-.978-.6c.014.232.388.445.978.6m15.941-.8A4.972,4.972,0,0,0,61.782,7.3l.265.192a1.969,1.969,0,0,1-1.579.128c-.637.1-1.378.187-2.141.27-.488.642,2.525,1.08,3.32,1.439-1.434-.184-2.674-.811-4.575-.424.251.188.012.318,1.21.309l-2.624.14c-3-.894-.135-1.171,2.67-1.465.09-.141.3-.289.833-.453a2.854,2.854,0,0,1,1.308.183M39.375,6.191l1.438.185c.738.25.269.505.527.695-1.685-.057-3.884-.492-1.965-.88m86.293-.222c-.954.195,1.25.947,3.4.749l-1.142.955c-.054-.633-4.363-.552-4.846-.615-.761-.883.917-.509,2.591-1.088m100.247-.022c.78,1.2,6.277.481,7.481.8-2.845.263-9.344.544-7.481-.8m9.935-.487c1.761.015,2.334-.1,1.776.505a8.192,8.192,0,0,0,2.08.08c-.121.436-.251.864-.4,1.261l.212-1.053c-2.507.26-1.914-.561-3.666-.792-.461,0-.979-.015-1.635-.052a8.611,8.611,0,0,1,1.635.052m-59.011-.076-2-.88-3.118.076ZM143.323,3.806c.256.507-3.325.521-4.07.27.229.666,2.629.581,4.54.651a6.217,6.217,0,0,0,1.258.087c-.374-.048-.788-.071-1.258-.087-.716-.156-.218-.5-.218-.731l.95-.195-2.643-.18ZM84.387,3.091a7.243,7.243,0,0,1-3.833.145,10,10,0,0,1,3.833-.145m76.7.137c-3.6.332,1.732,1.006-.633,1.334l1.889-.069c-3.064.708-2.186-.754-4.343-.554l1.442-.132c1.14-.639-2.209-.436-2.48-.941,1.683-.262,5.559.23,4.125.363M81,2.663c-3.568.649-2.938-.686-5.1-.8,2.842-.584,2.427.624,5.1.8m57.376-1.374.226-.126-2.9-.37-.23.128Z" transform="translate(0 0)" fill="#081346"/>
        <path id="Trazado_332" data-name="Trazado 332" d="M1.942.017A9.552,9.552,0,0,1,0,.033C.616,0,1.261-.014,1.942.017" transform="translate(74.628 9.322)" fill="#081346"/>
        <path id="Trazado_333" data-name="Trazado 333" d="M.029,0C.117.09.1.362.039.734A1.651,1.651,0,0,1,.029,0" transform="translate(235.042 13.834)" fill="#081346"/>
        <path id="Trazado_334" data-name="Trazado 334" d="M.233,0,.122.409C.088.5.039.621,0,.723Z" transform="translate(231.946 23.647)" fill="#081346"/>
        <path id="Trazado_335" data-name="Trazado 335" d="M.776.549c.488-1.048.38-.462.1.625C.727,1.715.546,2.387.37,3.04l-.22.809c-.059.221-.112.429-.151.606A9.558,9.558,0,0,0,.157,3.5c.047-.371.09-.7.13-1.016A7.152,7.152,0,0,1,.776.549" transform="translate(4.735 47.868)" fill="#081346"/>
        <path id="Trazado_336" data-name="Trazado 336" d="M1.206,2.343A4.572,4.572,0,0,0,0,2.155C.185,1.492.375.762.562,0,.438.593.286,1.23.039,2.107a6.468,6.468,0,0,1,1.167.236" transform="translate(2.361 57.643)" fill="#081346"/>
        <path id="Trazado_337" data-name="Trazado 337" d="M1.423,0C.925,2.745.472,4.885,0,6.809c.175-.847.286-1.6.481-2.636S.955,1.805,1.423,0" transform="translate(2.923 50.834)" fill="#081346"/>
        <path id="Trazado_338" data-name="Trazado 338" d="M6.166.87a14.209,14.209,0,0,0-4.343.312C8.015-.071.533.4,0,.084,3.873-.229,3.925.4,6.166.87" transform="translate(22.636 55.699)" fill="#081346"/>
        <path id="Trazado_339" data-name="Trazado 339" d="M1.717,0A13.088,13.088,0,0,0,0,.315,6.376,6.376,0,0,1,1.717,0" transform="translate(35.321 55.786)" fill="#081346"/>
        <path id="Trazado_340" data-name="Trazado 340" d="M2.29.03A8.062,8.062,0,0,1,6.23.66C3.646,1.4,1.945.7,0,.81,1.524.6,3.018.478,2.29.03" transform="translate(37.038 54.977)" fill="#081346"/>
        <path id="Trazado_341" data-name="Trazado 341" d="M1.732.625C1.235.625.047.781,0,.47L3.6,0C5.052,0,2.449.468,1.732.625" transform="translate(103.728 43.28)" fill="#081346"/>
        <path id="Trazado_342" data-name="Trazado 342" d="M0,.937C2.879.624,1.345,0,2.809,0L2.693,1.095Z" transform="translate(118.801 42.82)" fill="#081346"/>
        <path id="Trazado_343" data-name="Trazado 343" d="M.853.084H0L.972,0Z" transform="translate(116.587 49.319)" fill="#081346"/>
        <path id="Trazado_344" data-name="Trazado 344" d="M2.04.944,0,0C2.428,0,2.5.948,2.04.944" transform="translate(130.56 39.997)" fill="#081346"/>
        <path id="Trazado_345" data-name="Trazado 345" d="M1.7.466,0,.309,5.3,0Z" transform="translate(141.829 38.285)" fill="#081346"/>
        <path id="Trazado_346" data-name="Trazado 346" d="M0,.468.456.156,4.09,0Z" transform="translate(156.78 37.192)" fill="#081346"/>
        <path id="Trazado_347" data-name="Trazado 347" d="M.037.854C-.513-.159,5.272.262,6.956,0,5.8,1.274,2.341-.424.037.854" transform="translate(186.626 7.978)" fill="#081346"/>
        <path id="Trazado_348" data-name="Trazado 348" d="M0,0,5.527.232C1.245.63,4.332.235,0,0" transform="translate(81.6 8.874)" fill="#081346"/>
      </g>
    </g>
  </g>
</svg>
