<svg xmlns="http://www.w3.org/2000/svg" width="32.103" height="32.103" viewBox="0 0 32.103 32.103">
  <path id="Trazado_311" data-name="Trazado 311" d="M15.111,0h1.944A1.786,1.786,0,0,0,17.3.051a15.286,15.286,0,0,1,6.755,2.091,15.842,15.842,0,0,1,7.806,11.143c.109.583.165,1.175.246,1.763v1.944c-.018.1-.039.2-.053.3-.087.63-.142,1.266-.263,1.89A16.028,16.028,0,0,1,18.815,31.857c-.584.1-1.173.165-1.76.246H15.048a1.2,1.2,0,0,0-.207-.051,14.281,14.281,0,0,1-3.971-.821A15.827,15.827,0,0,1,.254,18.846C.133,18.257.083,17.652,0,17.055V15.048c.081-.587.145-1.178.246-1.762A16.027,16.027,0,0,1,12.916.316C13.641.176,14.379.1,15.111,0m2.01,14.053c0-.766-.022-1.486.007-2.2a1.025,1.025,0,0,1,1.052-1.063c.457-.036.918-.022,1.377-.038.32-.011.47-.145.477-.458q.018-.893,0-1.786c-.006-.329-.162-.473-.492-.475-.658,0-1.317-.014-1.974.007a3.255,3.255,0,0,0-3.286,2.753,14.35,14.35,0,0,0-.124,2.12c-.015.373,0,.746,0,1.153-.568,0-1.1,0-1.629,0-.4,0-.545.149-.547.552,0,.627,0,1.254,0,1.88,0,.534.107.643.638.644h1.548c0,.158,0,.271,0,.385q0,3.04-.009,6.08c0,.409.065.473.472.474q.987,0,1.975,0c.435,0,.508-.073.508-.509q0-3.024,0-6.049v-.381c.75,0,1.449,0,2.147,0,.457,0,.568-.109.618-.557.068-.612.138-1.224.217-1.835.068-.525-.068-.692-.6-.693-.782,0-1.563,0-2.376,0" fill="#40914d"/>
</svg>
