<svg xmlns="http://www.w3.org/2000/svg" width="32.594" height="32.594" viewBox="0 0 32.594 32.594">
  <path id="Trazado_313" data-name="Trazado 313" d="M15.278,0h2.037c.555.072,1.113.126,1.664.22a15.991,15.991,0,0,1,8.089,3.866,16.031,16.031,0,0,1,5.275,9.4c.105.592.168,1.193.25,1.789v2.037c-.049.4-.092.8-.149,1.194A16.358,16.358,0,0,1,19.134,32.34c-.6.109-1.212.17-1.819.254H15.278c-.4-.049-.8-.092-1.193-.149A16.362,16.362,0,0,1,.254,19.136c-.109-.6-.171-1.214-.254-1.821V15.278c.071-.545.125-1.092.217-1.633A16.034,16.034,0,0,1,4.673,4.9,15.976,15.976,0,0,1,13.49.25c.592-.1,1.192-.168,1.788-.25m-8.5,20.236a4.027,4.027,0,0,0,2.268,3.756,3.918,3.918,0,0,0,4.333-.471,19.669,19.669,0,0,0,1.888-1.842.721.721,0,0,0-.087-1.073.758.758,0,0,0-1.06.082c-.509.5-1,1.013-1.514,1.5a2.458,2.458,0,0,1-2.326.628,2.373,2.373,0,0,1-1.861-1.729,2.477,2.477,0,0,1,.652-2.578c1.216-1.229,2.461-2.429,3.66-3.673a2.571,2.571,0,0,1,4.4,1.159.756.756,0,0,0,.957.605.769.769,0,0,0,.517-.982,3.893,3.893,0,0,0-2.8-2.972,3.891,3.891,0,0,0-4,.977c-1.313,1.265-2.59,2.569-3.872,3.866a3.914,3.914,0,0,0-1.155,2.747M22.01,8.184a4.167,4.167,0,0,0-2.993,1.033c-.556.523-1.1,1.061-1.617,1.622a1.05,1.05,0,0,0-.226.626.647.647,0,0,0,.463.624.741.741,0,0,0,.845-.195c.507-.5,1-1.012,1.515-1.5a2.419,2.419,0,0,1,2.3-.618,2.535,2.535,0,0,1,1.271,4.253c-1.213,1.261-2.463,2.487-3.708,3.718a2.545,2.545,0,0,1-4.34-1.166.771.771,0,1,0-1.473.406,4.073,4.073,0,0,0,6.746,1.977c1.333-1.276,2.648-2.574,3.911-3.919a3.845,3.845,0,0,0,.768-4.4A3.839,3.839,0,0,0,22.01,8.184" fill="#40914d"/>
</svg>
