<svg xmlns="http://www.w3.org/2000/svg" width="31.823" height="31.823" viewBox="0 0 31.823 31.823">
  <path id="Trazado_312" data-name="Trazado 312" d="M14.917,0h1.989c.532.069,1.066.119,1.595.209A15.969,15.969,0,0,1,31.579,13.17c.1.578.164,1.164.244,1.747v1.989a1.751,1.751,0,0,0-.052.24A15.188,15.188,0,0,1,29.6,24a15.731,15.731,0,0,1-10.947,7.581c-.577.109-1.163.164-1.745.244H14.917c-.388-.048-.777-.09-1.164-.145A15.976,15.976,0,0,1,.248,18.684C.141,18.1.082,17.5,0,16.906V14.917c.048-.389.088-.778.144-1.166a15.691,15.691,0,0,1,4.419-8.97A15.585,15.585,0,0,1,13.171.244C13.749.143,14.335.08,14.917,0M24.3,9.039c-.675.242-1.335.477-1.994.715a.433.433,0,0,1-.49-.127A3.643,3.643,0,0,0,15.8,11.469a10.994,10.994,0,0,0-.129,1.68A10.443,10.443,0,0,1,8.223,9.338a3.679,3.679,0,0,0-.394,2.651,3.736,3.736,0,0,0,1.448,2.184l-.058.085-1.5-.422c-.1,1.508.892,2.785,2.77,3.621H8.975a3.79,3.79,0,0,0,3.407,2.567,7.484,7.484,0,0,1-5.295,1.515.638.638,0,0,0,.072.084q.077.051.158.1a10.375,10.375,0,0,0,15.689-9.135.529.529,0,0,1,.228-.492,6.725,6.725,0,0,0,1.535-1.634l-1.9.512-.042-.075A3.688,3.688,0,0,0,24.3,9.039" fill="#40914d"/>
</svg>
